<svg preserveAspectRatio="none" overflow="visible" style="display: block;" width="56" height="56" viewBox="0 0 56 56" fill="none" xmlns="http://www.w3.org/2000/svg">
<g id="Icon" clip-path="url(#clip0_0_4)">
<path id="Vector" d="M40 0H16C7.16344 0 0 7.16344 0 16V40C0 48.8366 7.16344 56 16 56H40C48.8366 56 56 48.8366 56 40V16C56 7.16344 48.8366 0 40 0Z" fill="#EAF8F2"/>
<path id="Vector_2" opacity="0.2" d="M28 36C33.5228 36 38 31.5228 38 26C38 20.4772 33.5228 16 28 16C22.4772 16 18 20.4772 18 26C18 31.5228 22.4772 36 28 36Z" fill="#02AF69"/>
<path id="Vector_3" d="M28 20V26L32 28" stroke="#02AF69" stroke-width="2" stroke-linecap="round" stroke-linejoin="round"/>
<path id="Vector_4" d="M20 38C20 33.6 23.6 30 28 30C32.4 30 36 33.6 36 38" stroke="#02AF69" stroke-width="2" stroke-linecap="round"/>
</g>
<defs>
<clipPath id="clip0_0_4">
<rect width="56" height="56" fill="white"/>
</clipPath>
</defs>
</svg>
